<svg width="850" height="850" viewBox="0 0 850 850" fill="none" xmlns="http://www.w3.org/2000/svg">
<rect x="848.96" y="425.009" width="8" height="48" rx="4" transform="rotate(90 848.96 425.009)" fill="#C4C4C4"/>
<rect x="848.755" y="438.319" width="8" height="48" rx="4" transform="rotate(91.7691 848.755 438.319)" fill="#C4C4C4"/>
<rect x="848.142" y="451.551" width="8" height="48" rx="4" transform="rotate(93.537 848.142 451.551)" fill="#C4C4C4"/>
<rect x="847.124" y="464.704" width="8" height="48" rx="4" transform="rotate(95.3027 847.124 464.704)" fill="#C4C4C4"/>
<rect x="845.704" y="477.778" width="8" height="48" rx="4" transform="rotate(97.0655 845.704 477.778)" fill="#C4C4C4"/>
<rect x="843.667" y="492.153" width="8" height="48" rx="4" transform="rotate(99.0443 843.667 492.153)" fill="#C4C4C4"/>
<rect x="841.417" y="505.003" width="8" height="48" rx="4" transform="rotate(100.799 841.417 505.003)" fill="#C4C4C4"/>
<rect x="838.773" y="517.763" width="8" height="48" rx="4" transform="rotate(102.548 838.773 517.763)" fill="#C4C4C4"/>
<rect x="835.427" y="531.641" width="8" height="48" rx="4" transform="rotate(104.51 835.427 531.641)" fill="#C4C4C4"/>
<rect x="831.978" y="544.154" width="8" height="48" rx="4" transform="rotate(106.248 831.978 544.154)" fill="#C4C4C4"/>
<rect x="827.784" y="557.658" width="8" height="48" rx="4" transform="rotate(108.196 827.784 557.658)" fill="#C4C4C4"/>
<rect x="823.544" y="569.899" width="8" height="48" rx="4" transform="rotate(109.922 823.544 569.899)" fill="#C4C4C4"/>
<rect x="818.529" y="583.009" width="8" height="48" rx="4" transform="rotate(111.856 818.529 583.009)" fill="#C4C4C4"/>
<rect x="813.108" y="595.882" width="8" height="48" rx="4" transform="rotate(113.782 813.108 595.882)" fill="#C4C4C4"/>
<rect x="807.707" y="607.642" width="8" height="48" rx="4" transform="rotate(115.488 807.707 607.642)" fill="#C4C4C4"/>
<rect x="801.508" y="620.084" width="8" height="48" rx="4" transform="rotate(117.4 801.508 620.084)" fill="#C4C4C4"/>
<rect x="795.36" y="631.497" width="8" height="48" rx="4" transform="rotate(119.094 795.36 631.497)" fill="#C4C4C4"/>
<rect x="788.409" y="643.477" width="8" height="48" rx="4" transform="rotate(120.994 788.409 643.477)" fill="#C4C4C4"/>
<rect x="781.093" y="655.19" width="8" height="48" rx="4" transform="rotate(122.888 781.093 655.19)" fill="#C4C4C4"/>
<rect x="773.42" y="666.629" width="8" height="48" rx="4" transform="rotate(124.776 773.42 666.629)" fill="#C4C4C4"/>
<rect x="765.836" y="677.199" width="8" height="48" rx="4" transform="rotate(126.451 765.836 677.199)" fill="#C4C4C4"/>
<rect x="757.472" y="688.114" width="8" height="48" rx="4" transform="rotate(128.332 757.472 688.114)" fill="#C4C4C4"/>
<rect x="748.777" y="698.734" width="8" height="48" rx="4" transform="rotate(130.21 748.777 698.734)" fill="#C4C4C4"/>
<rect x="740.183" y="708.581" width="8" height="48" rx="4" transform="rotate(131.877 740.183 708.581)" fill="#C4C4C4"/>
<rect x="730.844" y="718.626" width="8" height="48" rx="4" transform="rotate(133.751 730.844 718.626)" fill="#C4C4C4"/>
<rect x="721.201" y="728.352" width="8" height="48" rx="4" transform="rotate(135.625 721.201 728.352)" fill="#C4C4C4"/>
<rect x="711.264" y="737.752" width="8" height="48" rx="4" transform="rotate(137.498 711.264 737.752)" fill="#C4C4C4"/>
<rect x="701.426" y="746.486" width="8" height="48" rx="4" transform="rotate(139.165 701.426 746.486)" fill="#C4C4C4"/>
<rect x="690.915" y="755.243" width="8" height="48" rx="4" transform="rotate(141.042 690.915 755.243)" fill="#C4C4C4"/>
<rect x="680.138" y="763.651" width="8" height="48" rx="4" transform="rotate(142.921 680.138 763.651)" fill="#C4C4C4"/>
<rect x="669.457" y="771.453" width="8" height="48" rx="4" transform="rotate(144.595 669.457 771.453)" fill="#C4C4C4"/>
<rect x="658.165" y="779.165" width="8" height="48" rx="4" transform="rotate(146.482 658.165 779.165)" fill="#C4C4C4"/>
<rect x="646.639" y="786.505" width="8" height="48" rx="4" transform="rotate(148.374 646.639 786.505)" fill="#C4C4C4"/>
<rect x="634.889" y="793.466" width="8" height="48" rx="4" transform="rotate(150.272 634.889 793.466)" fill="#C4C4C4"/>
<rect x="623.227" y="799.881" width="8" height="48" rx="4" transform="rotate(151.964 623.227 799.881)" fill="#C4C4C4"/>
<rect x="611.051" y="806.083" width="8" height="48" rx="4" transform="rotate(153.874 611.051 806.083)" fill="#C4C4C4"/>
<rect x="598.963" y="811.761" width="8" height="48" rx="4" transform="rotate(155.578 598.963 811.761)" fill="#C4C4C4"/>
<rect x="586.409" y="817.174" width="8" height="48" rx="4" transform="rotate(157.501 586.409 817.174)" fill="#C4C4C4"/>
<rect x="573.692" y="822.175" width="8" height="48" rx="4" transform="rotate(159.433 573.692 822.175)" fill="#C4C4C4"/>
<rect x="561.067" y="826.677" width="8" height="48" rx="4" transform="rotate(161.156 561.067 826.677)" fill="#C4C4C4"/>
<rect x="548.052" y="830.852" width="8" height="48" rx="4" transform="rotate(163.102 548.052 830.852)" fill="#C4C4C4"/>
<rect x="535.136" y="834.54" width="8" height="48" rx="4" transform="rotate(164.837 535.136 834.54)" fill="#C4C4C4"/>
<rect x="521.877" y="837.87" width="8" height="48" rx="4" transform="rotate(166.797 521.877 837.87)" fill="#C4C4C4"/>
<rect x="508.731" y="840.725" width="8" height="48" rx="4" transform="rotate(168.545 508.731 840.725)" fill="#C4C4C4"/>
<rect x="495.488" y="843.162" width="8" height="48" rx="4" transform="rotate(170.297 495.488 843.162)" fill="#C4C4C4"/>
<rect x="481.97" y="845.203" width="8" height="48" rx="4" transform="rotate(172.274 481.97 845.203)" fill="#C4C4C4"/>
<rect x="468.588" y="846.787" width="8" height="48" rx="4" transform="rotate(174.036 468.588 846.787)" fill="#C4C4C4"/>
<rect x="455.159" y="847.947" width="8" height="48" rx="4" transform="rotate(175.801 455.159 847.947)" fill="#C4C4C4"/>
<rect x="441.511" y="848.691" width="8" height="48" rx="4" transform="rotate(177.789 441.511 848.691)" fill="#C4C4C4"/>
<rect x="428.033" y="848.997" width="8" height="48" rx="4" transform="rotate(179.558 428.033 848.997)" fill="#C4C4C4"/>
<rect x="412.885" y="848.839" width="8" height="48" rx="4" transform="rotate(-178.452 412.885 848.839)" fill="#C4C4C4"/>
<rect x="399.418" y="848.25" width="8" height="48" rx="4" transform="rotate(-176.684 399.418 848.25)" fill="#C4C4C4"/>
<rect x="385.98" y="847.237" width="8" height="48" rx="4" transform="rotate(-174.918 385.98 847.237)" fill="#C4C4C4"/>
<rect x="372.586" y="845.801" width="8" height="48" rx="4" transform="rotate(-173.155 372.586 845.801)" fill="#C4C4C4"/>
<rect x="359.055" y="843.91" width="8" height="48" rx="4" transform="rotate(-171.175 359.055 843.91)" fill="#C4C4C4"/>
<rect x="345.792" y="841.621" width="8" height="48" rx="4" transform="rotate(-169.42 345.792 841.621)" fill="#C4C4C4"/>
<rect x="332.41" y="838.867" width="8" height="48" rx="4" transform="rotate(-167.452 332.41 838.867)" fill="#C4C4C4"/>
<rect x="319.339" y="835.735" width="8" height="48" rx="4" transform="rotate(-165.707 319.339 835.735)" fill="#C4C4C4"/>
<rect x="306.391" y="832.194" width="8" height="48" rx="4" transform="rotate(-163.969 306.391 832.194)" fill="#C4C4C4"/>
<rect x="293.345" y="828.17" width="8" height="48" rx="4" transform="rotate(-162.02 293.345 828.17)" fill="#C4C4C4"/>
<rect x="280.432" y="823.724" width="8" height="48" rx="4" transform="rotate(-160.078 280.432 823.724)" fill="#C4C4C4"/>
<rect x="267.925" y="818.963" width="8" height="48" rx="4" transform="rotate(-158.359 267.925 818.963)" fill="#C4C4C4"/>
<rect x="255.33" y="813.701" width="8" height="48" rx="4" transform="rotate(-156.432 255.33 813.701)" fill="#C4C4C4"/>
<rect x="243.189" y="808.166" width="8" height="48" rx="4" transform="rotate(-154.725 243.189 808.166)" fill="#C4C4C4"/>
<rect x="230.964" y="802.113" width="8" height="48" rx="4" transform="rotate(-152.812 230.964 802.113)" fill="#C4C4C4"/>
<rect x="218.936" y="795.667" width="8" height="48" rx="4" transform="rotate(-150.906 218.936 795.667)" fill="#C4C4C4"/>
<rect x="207.436" y="789.024" width="8" height="48" rx="4" transform="rotate(-149.217 207.436 789.024)" fill="#C4C4C4"/>
<rect x="195.85" y="781.832" width="8" height="48" rx="4" transform="rotate(-147.322 195.85 781.832)" fill="#C4C4C4"/>
<rect x="184.495" y="774.267" width="8" height="48" rx="4" transform="rotate(-145.433 184.495 774.267)" fill="#C4C4C4"/>
<rect x="173.738" y="766.599" width="8" height="48" rx="4" transform="rotate(-143.758 173.738 766.599)" fill="#C4C4C4"/>
<rect x="162.89" y="758.337" width="8" height="48" rx="4" transform="rotate(-141.877 162.89 758.337)" fill="#C4C4C4"/>
<rect x="152.304" y="749.726" width="8" height="48" rx="4" transform="rotate(-139.999 152.304 749.726)" fill="#C4C4C4"/>
<rect x="141.99" y="740.773" width="8" height="48" rx="4" transform="rotate(-138.123 141.99 740.773)" fill="#C4C4C4"/>
<rect x="132.36" y="731.865" width="8" height="48" rx="4" transform="rotate(-136.457 132.36 731.865)" fill="#C4C4C4"/>
<rect x="122.63" y="722.283" width="8" height="48" rx="4" transform="rotate(-134.584 122.63 722.283)" fill="#C4C4C4"/>
<rect x="113.201" y="712.381" width="8" height="48" rx="4" transform="rotate(-132.71 113.201 712.381)" fill="#C4C4C4"/>
<rect x="104.505" y="702.657" width="8" height="48" rx="4" transform="rotate(-131.043 104.505 702.657)" fill="#C4C4C4"/>
<rect x="95.7104" y="692.179" width="8" height="48" rx="4" transform="rotate(-129.167 95.7104 692.179)" fill="#C4C4C4"/>
<rect x="87.2427" y="681.406" width="8" height="48" rx="4" transform="rotate(-127.288 87.2427 681.406)" fill="#C4C4C4"/>
<rect x="79.1104" y="670.343" width="8" height="48" rx="4" transform="rotate(-125.405 79.1104 670.343)" fill="#C4C4C4"/>
<rect x="71.7605" y="659.656" width="8" height="48" rx="4" transform="rotate(-123.728 71.7605 659.656)" fill="#C4C4C4"/>
<rect x="64.3262" y="648.083" width="8" height="48" rx="4" transform="rotate(-121.836 64.3262 648.083)" fill="#C4C4C4"/>
<rect x="57.2522" y="636.244" width="8" height="48" rx="4" transform="rotate(-119.939 57.2522 636.244)" fill="#C4C4C4"/>
<rect x="50.9766" y="624.943" width="8" height="48" rx="4" transform="rotate(-118.248 50.9766 624.943)" fill="#C4C4C4"/>
<rect x="44.644" y="612.641" width="8" height="48" rx="4" transform="rotate(-116.338 44.644 612.641)" fill="#C4C4C4"/>
<rect x="38.696" y="600.091" width="8" height="48" rx="4" transform="rotate(-114.422 38.696 600.091)" fill="#C4C4C4"/>
<rect x="33.5417" y="588.256" width="8" height="48" rx="4" transform="rotate(-112.713 33.5417 588.256)" fill="#C4C4C4"/>
<rect x="28.377" y="575.286" width="8" height="48" rx="4" transform="rotate(-110.782 28.377 575.286)" fill="#C4C4C4"/>
<rect x="23.9883" y="563.151" width="8" height="48" rx="4" transform="rotate(-109.06 23.9883 563.151)" fill="#C4C4C4"/>
<rect x="19.6321" y="549.786" width="8" height="48" rx="4" transform="rotate(-107.115 19.6321 549.786)" fill="#C4C4C4"/>
<rect x="16.0247" y="537.379" width="8" height="48" rx="4" transform="rotate(-105.38 16.0247 537.379)" fill="#C4C4C4"/>
<rect x="12.5039" y="523.639" width="8" height="48" rx="4" transform="rotate(-103.421 12.5039 523.639)" fill="#C4C4C4"/>
<rect x="9.69238" y="510.983" width="8" height="48" rx="4" transform="rotate(-101.674 9.69238 510.983)" fill="#C4C4C4"/>
<rect x="7.03589" y="496.886" width="8" height="48" rx="4" transform="rotate(-99.7028 7.03589 496.886)" fill="#C4C4C4"/>
<rect x="5.0376" y="483.999" width="8" height="48" rx="4" transform="rotate(-97.9456 5.0376 483.999)" fill="#C4C4C4"/>
<rect x="3.43384" y="471.029" width="8" height="48" rx="4" transform="rotate(-96.1845 3.43384 471.029)" fill="#C4C4C4"/>
<rect x="2.11133" y="456.45" width="8" height="48" rx="4" transform="rotate(-94.1994 2.11133 456.45)" fill="#C4C4C4"/>
<rect x="1.34741" y="443.265" width="8" height="48" rx="4" transform="rotate(-92.4323 1.34741 443.265)" fill="#C4C4C4"/>
<rect x="0.989502" y="430.002" width="8" height="48" rx="4" transform="rotate(-90.6635 0.989502 430.002)" fill="#C4C4C4"/>
<rect x="1.07593" y="415.038" width="8" height="48" rx="4" transform="rotate(-88.6731 1.07593 415.038)" fill="#C4C4C4"/>
<rect x="1.58423" y="401.837" width="8" height="48" rx="4" transform="rotate(-86.9048 1.58423 401.837)" fill="#C4C4C4"/>
<rect x="2.49146" y="388.755" width="8" height="48" rx="4" transform="rotate(-85.1385 2.49146 388.755)" fill="#C4C4C4"/>
<rect x="3.99976" y="374.02" width="8" height="48" rx="4" transform="rotate(-83.1546 3.99976 374.02)" fill="#C4C4C4"/>
<rect x="5.73828" y="361.191" width="8" height="48" rx="4" transform="rotate(-81.395 5.73828 361.191)" fill="#C4C4C4"/>
<rect x="7.84961" y="348.521" width="8" height="48" rx="4" transform="rotate(-79.6395 7.84961 348.521)" fill="#C4C4C4"/>
<rect x="10.7273" y="334.156" width="8" height="48" rx="4" transform="rotate(-77.6702 10.7273 334.156)" fill="#C4C4C4"/>
<rect x="13.6179" y="321.814" width="8" height="48" rx="4" transform="rotate(-75.9252 13.6179 321.814)" fill="#C4C4C4"/>
<rect x="17.394" y="307.758" width="8" height="48" rx="4" transform="rotate(-73.9687 17.394 307.758)" fill="#C4C4C4"/>
<rect x="21.0251" y="295.787" width="8" height="48" rx="4" transform="rotate(-72.2358 21.0251 295.787)" fill="#C4C4C4"/>
<rect x="25.6655" y="282.088" width="8" height="48" rx="4" transform="rotate(-70.2935 25.6655 282.088)" fill="#C4C4C4"/>
<rect x="29.9971" y="270.523" width="8" height="48" rx="4" transform="rotate(-68.5735 29.9971 270.523)" fill="#C4C4C4"/>
<rect x="35.4656" y="257.226" width="8" height="48" rx="4" transform="rotate(-66.6456 35.4656 257.226)" fill="#C4C4C4"/>
<rect x="40.4568" y="246.095" width="8" height="48" rx="4" transform="rotate(-64.9383 40.4568 246.095)" fill="#C4C4C4"/>
<rect x="46.7168" y="233.237" width="8" height="48" rx="4" transform="rotate(-63.0244 46.7168 233.237)" fill="#C4C4C4"/>
<rect x="53.4004" y="220.611" width="8" height="48" rx="4" transform="rotate(-61.1175 53.4004 220.611)" fill="#C4C4C4"/>
<rect x="59.3445" y="210.176" width="8" height="48" rx="4" transform="rotate(-59.4279 59.3445 210.176)" fill="#C4C4C4"/>
<rect x="66.7664" y="198.041" width="8" height="48" rx="4" transform="rotate(-57.5327 66.7664 198.041)" fill="#C4C4C4"/>
<rect x="74.5869" y="186.167" width="8" height="48" rx="4" transform="rotate(-55.6429 74.5869 186.167)" fill="#C4C4C4"/>
<rect x="81.4038" y="176.474" width="8" height="48" rx="4" transform="rotate(-53.9671 81.4038 176.474)" fill="#C4C4C4"/>
<rect x="89.9128" y="165.134" width="8" height="48" rx="4" transform="rotate(-52.0856 89.9128 165.134)" fill="#C4C4C4"/>
<rect x="98.7964" y="154.081" width="8" height="48" rx="4" transform="rotate(-50.2073 98.7964 154.081)" fill="#C4C4C4"/>
<rect x="108.047" y="143.326" width="8" height="48" rx="4" transform="rotate(-48.3315 108.047 143.326)" fill="#C4C4C4"/>
<rect x="115.943" y="134.687" width="8" height="48" rx="4" transform="rotate(-46.6654 115.943 134.687)" fill="#C4C4C4"/>
<rect x="125.823" y="124.519" width="8" height="48" rx="4" transform="rotate(-44.7918 125.823 124.519)" fill="#C4C4C4"/>
<rect x="136.049" y="114.673" width="8" height="48" rx="4" transform="rotate(-42.9181 136.049 114.673)" fill="#C4C4C4"/>
<rect x="146.615" y="105.159" width="8" height="48" rx="4" transform="rotate(-41.0434 146.615 105.159)" fill="#C4C4C4"/>
<rect x="155.487" y="97.6392" width="8" height="48" rx="4" transform="rotate(-39.3755 155.487 97.6392)" fill="#C4C4C4"/>
<rect x="166.632" y="88.7657" width="8" height="48" rx="4" transform="rotate(-37.4966 166.632 88.7657)" fill="#C4C4C4"/>
<rect x="178.098" y="80.2485" width="8" height="48" rx="4" transform="rotate(-35.6142 178.098 80.2485)" fill="#C4C4C4"/>
<rect x="187.636" y="73.6008" width="8" height="48" rx="4" transform="rotate(-33.9375 187.636 73.6008)" fill="#C4C4C4"/>
<rect x="199.651" y="65.766" width="8" height="48" rx="4" transform="rotate(-32.0466 199.651 65.766)" fill="#C4C4C4"/>
<rect x="211.972" y="58.3143" width="8" height="48" rx="4" transform="rotate(-30.1502 211.972 58.3143)" fill="#C4C4C4"/>
<rect x="222.144" y="52.5779" width="8" height="48" rx="4" transform="rotate(-28.4593 222.144 52.5779)" fill="#C4C4C4"/>
<rect x="234.989" y="45.8544" width="8" height="48" rx="4" transform="rotate(-26.5509 234.989 45.8544)" fill="#C4C4C4"/>
<rect x="248.125" y="39.5439" width="8" height="48" rx="4" transform="rotate(-24.6354 248.125 39.5439)" fill="#C4C4C4"/>
<rect x="258.91" y="34.7676" width="8" height="48" rx="4" transform="rotate(-22.9266 258.91 34.7676)" fill="#C4C4C4"/>
<rect x="272.551" y="29.2383" width="8" height="48" rx="4" transform="rotate(-20.9971 272.551 29.2383)" fill="#C4C4C4"/>
<rect x="283.72" y="25.1116" width="8" height="48" rx="4" transform="rotate(-19.2755 283.72 25.1116)" fill="#C4C4C4"/>
<rect x="297.854" y="20.4017" width="8" height="48" rx="4" transform="rotate(-17.3315 297.854 20.4017)" fill="#C4C4C4"/>
<rect x="312.258" y="16.1633" width="8" height="48" rx="4" transform="rotate(-15.3799 312.258 16.1633)" fill="#C4C4C4"/>
<rect x="324.024" y="13.1066" width="8" height="48" rx="4" transform="rotate(-13.6391 324.024 13.1066)" fill="#C4C4C4"/>
<rect x="335.959" y="10.3712" width="8" height="48" rx="4" transform="rotate(-11.8928 335.959 10.3712)" fill="#C4C4C4"/>
<rect x="351.048" y="7.43602" width="8" height="48" rx="4" transform="rotate(-9.92209 351.048 7.43602)" fill="#C4C4C4"/>
<rect x="363.365" y="5.45415" width="8" height="48" rx="4" transform="rotate(-8.16548 363.365 5.45415)" fill="#C4C4C4"/>
<rect x="375.855" y="3.82168" width="8" height="48" rx="4" transform="rotate(-6.40485 375.855 3.82168)" fill="#C4C4C4"/>
<rect x="391.606" y="2.3034" width="8" height="48" rx="4" transform="rotate(-4.42015 391.606 2.3034)" fill="#C4C4C4"/>
<rect x="404.474" y="1.49471" width="8" height="48" rx="4" transform="rotate(-2.65325 404.474 1.49471)" fill="#C4C4C4"/>
<rect x="417.516" y="1.0709" width="8" height="48" rx="4" transform="rotate(-0.884654 417.516 1.0709)" fill="#C4C4C4"/>
<rect x="432.345" y="1.06921" width="8" height="48" rx="4" transform="rotate(1.10579 432.345 1.06921)" fill="#C4C4C4"/>
<rect x="445.368" y="1.48853" width="8" height="48" rx="4" transform="rotate(2.87423 445.368 1.48853)" fill="#C4C4C4"/>
<rect x="461.305" y="2.54761" width="8" height="48" rx="4" transform="rotate(4.86151 461.305 2.54761)" fill="#C4C4C4"/>
<rect x="473.958" y="3.81299" width="8" height="48" rx="4" transform="rotate(6.62513 473.958 3.81299)" fill="#C4C4C4"/>
<rect x="486.44" y="5.4375" width="8" height="48" rx="4" transform="rotate(8.38529 486.44 5.4375)" fill="#C4C4C4"/>
<rect x="498.752" y="7.41113" width="8" height="48" rx="4" transform="rotate(10.1414 498.752 7.41113)" fill="#C4C4C4"/>
<rect x="513.836" y="10.3477" width="8" height="48" rx="4" transform="rotate(12.1113 513.836 10.3477)" fill="#C4C4C4"/>
<rect x="525.774" y="13.0747" width="8" height="48" rx="4" transform="rotate(13.857 525.774 13.0747)" fill="#C4C4C4"/>
<rect x="540.392" y="16.9232" width="8" height="48" rx="4" transform="rotate(15.8142 540.392 16.9232)" fill="#C4C4C4"/>
<rect x="551.953" y="20.3646" width="8" height="48" rx="4" transform="rotate(17.5479 551.953 20.3646)" fill="#C4C4C4"/>
<rect x="566.094" y="25.0774" width="8" height="48" rx="4" transform="rotate(19.491 566.094 25.0774)" fill="#C4C4C4"/>
<rect x="577.277" y="29.1998" width="8" height="48" rx="4" transform="rotate(21.2119 577.277 29.1998)" fill="#C4C4C4"/>
<rect x="590.929" y="34.7347" width="8" height="48" rx="4" transform="rotate(23.1406 590.929 34.7347)" fill="#C4C4C4"/>
<rect x="604.301" y="40.7053" width="8" height="48" rx="4" transform="rotate(25.0617 604.301 40.7053)" fill="#C4C4C4"/>
<rect x="614.885" y="45.8301" width="8" height="48" rx="4" transform="rotate(26.7633 614.885 45.8301)" fill="#C4C4C4"/>
<rect x="627.748" y="52.5648" width="8" height="48" rx="4" transform="rotate(28.671 627.748 52.5648)" fill="#C4C4C4"/>
<rect x="640.316" y="59.7031" width="8" height="48" rx="4" transform="rotate(30.5721 640.316 59.7031)" fill="#C4C4C4"/>
<rect x="650.284" y="65.7745" width="8" height="48" rx="4" transform="rotate(32.257 650.284 65.7745)" fill="#C4C4C4"/>
<rect x="662.322" y="73.6277" width="8" height="48" rx="4" transform="rotate(34.1473 662.322 73.6277)" fill="#C4C4C4"/>
<rect x="674.049" y="81.8558" width="8" height="48" rx="4" transform="rotate(36.0329 674.049 81.8558)" fill="#C4C4C4"/>
<rect x="683.375" y="88.8298" width="8" height="48" rx="4" transform="rotate(37.7055 683.375 88.8298)" fill="#C4C4C4"/>
<rect x="694.543" y="97.7296" width="8" height="48" rx="4" transform="rotate(39.5841 694.543 97.7296)" fill="#C4C4C4"/>
<rect x="705.384" y="106.978" width="8" height="48" rx="4" transform="rotate(41.4602 705.384 106.978)" fill="#C4C4C4"/>
<rect x="714.031" y="114.818" width="8" height="48" rx="4" transform="rotate(43.1263 714.031 114.818)" fill="#C4C4C4"/>
<rect x="724.279" y="124.699" width="8" height="48" rx="4" transform="rotate(45 724.279 124.699)" fill="#C4C4C4"/>
<rect x="734.181" y="134.905" width="8" height="48" rx="4" transform="rotate(46.8737 734.181 134.905)" fill="#C4C4C4"/>
<rect x="743.729" y="145.425" width="8" height="48" rx="4" transform="rotate(48.7482 743.729 145.425)" fill="#C4C4C4"/>
<rect x="751.372" y="154.377" width="8" height="48" rx="4" transform="rotate(50.4159 751.372 154.377)" fill="#C4C4C4"/>
<rect x="760.274" y="165.476" width="8" height="48" rx="4" transform="rotate(52.2945 760.274 165.476)" fill="#C4C4C4"/>
<rect x="768.799" y="176.865" width="8" height="48" rx="4" transform="rotate(54.1764 768.799 176.865)" fill="#C4C4C4"/>
<rect x="776.939" y="188.535" width="8" height="48" rx="4" transform="rotate(56.0625 776.939 188.535)" fill="#C4C4C4"/>
<rect x="783.467" y="198.533" width="8" height="48" rx="4" transform="rotate(57.743 783.467 198.533)" fill="#C4C4C4"/>
<rect x="790.899" y="210.726" width="8" height="48" rx="4" transform="rotate(59.6388 790.899 210.726)" fill="#C4C4C4"/>
<rect x="797.921" y="223.172" width="8" height="48" rx="4" transform="rotate(61.5407 797.921 223.172)" fill="#C4C4C4"/>
<rect x="803.542" y="233.903" width="8" height="48" rx="4" transform="rotate(63.2367 803.542 233.903)" fill="#C4C4C4"/>
<rect x="809.803" y="246.825" width="8" height="48" rx="4" transform="rotate(65.1514 809.803 246.825)" fill="#C4C4C4"/>
<rect x="814.797" y="258.018" width="8" height="48" rx="4" transform="rotate(66.8594 814.797 258.018)" fill="#C4C4C4"/>
<rect x="820.26" y="271.383" width="8" height="48" rx="4" transform="rotate(68.7881 820.26 271.383)" fill="#C4C4C4"/>
<rect x="825.269" y="284.95" width="8" height="48" rx="4" transform="rotate(70.7245 825.269 284.95)" fill="#C4C4C4"/>
<rect x="829.213" y="296.783" width="8" height="48" rx="4" transform="rotate(72.4521 829.213 296.783)" fill="#C4C4C4"/>
<rect x="833.369" y="310.729" width="8" height="48" rx="4" transform="rotate(74.4029 833.369 310.729)" fill="#C4C4C4"/>
<rect x="836.586" y="322.951" width="8" height="48" rx="4" transform="rotate(76.143 836.586 322.951)" fill="#C4C4C4"/>
<rect x="839.853" y="337.23" width="8" height="48" rx="4" transform="rotate(78.1072 839.853 337.23)" fill="#C4C4C4"/>
<rect x="842.303" y="349.801" width="8" height="48" rx="4" transform="rotate(79.8586 842.303 349.801)" fill="#C4C4C4"/>
<rect x="844.385" y="362.541" width="8" height="48" rx="4" transform="rotate(81.6147 844.385 362.541)" fill="#C4C4C4"/>
<rect x="846.294" y="377.229" width="8" height="48" rx="4" transform="rotate(83.5951 846.294 377.229)" fill="#C4C4C4"/>
<rect x="847.554" y="390.246" width="8" height="48" rx="4" transform="rotate(85.3591 847.554 390.246)" fill="#C4C4C4"/>
<rect x="848.418" y="403.396" width="8" height="48" rx="4" transform="rotate(87.1258 848.418 403.396)" fill="#C4C4C4"/>
<rect x="848.88" y="416.663" width="8" height="48" rx="4" transform="rotate(88.8942 848.88 416.663)" fill="#C4C4C4"/>
<path d="M800.961 425.009C800.961 632.668 632.62 801.009 424.961 801.009C217.302 801.009 48.9607 632.668 48.9607 425.009C48.9607 217.35 217.302 49.0089 424.961 49.0089C632.62 49.0089 800.961 217.35 800.961 425.009Z" fill="#C4C4C4"/>
</svg>
